<svg id="SvgjsSvg1008" xmlns="http://www.w3.org/2000/svg" version="1.1" xmlns:xlink="http://www.w3.org/1999/xlink" xmlns:svgjs="http://svgjs.com/svgjs" width="33" height="25" viewBox="0 0 33 25"><title>Shape 1 copy 2</title><desc>Created with Avocode.</desc><defs id="SvgjsDefs1009"></defs><path id="SvgjsPath1010" d="M2451.86 508.178H2454.2400000000002C2454.3100000000004 508.178 2454.4700000000003 508.156 2454.53 508.156C2454.9900000000002 508.064 2455.3700000000003 507.652 2455.3700000000003 507.08C2455.3700000000003 506.53 2454.9900000000002 506.118 2454.53 506.00399999999996C2454.4700000000003 505.98099999999994 2454.3300000000004 505.98099999999994 2454.2400000000002 505.98099999999994H2451.86ZM2453.97 493C2451.7 493 2449.8399999999997 494.854 2449.8399999999997 497.167V501.49399999999997H2455.6699999999996C2455.7999999999997 501.49399999999997 2455.9599999999996 501.49399999999997 2456.0799999999995 501.51599999999996C2457.3899999999994 501.585 2458.3699999999994 502.27199999999993 2458.3699999999994 503.462C2458.3699999999994 504.401 2457.7099999999996 505.202 2456.4799999999996 505.363V505.408C2457.8199999999997 505.5 2458.8399999999997 506.255 2458.8399999999997 507.423C2458.8399999999997 508.682 2457.7099999999996 509.50600000000003 2456.2099999999996 509.50600000000003H2449.8199999999997V517.977H2455.87C2458.14 517.977 2460 516.1229999999999 2460 513.81V492.99999999999994ZM2455.08 503.737C2455.08 503.18800000000005 2454.69 502.821 2454.24 502.75300000000004C2454.1899999999996 502.75300000000004 2454.08 502.73 2454.0099999999998 502.73H2451.8599999999997V504.744H2454.0099999999998C2454.08 504.744 2454.22 504.744 2454.24 504.72200000000004C2454.6899999999996 504.653 2455.08 504.28700000000003 2455.08 503.737ZM2427.02 497.167V507.44599999999997C2428.18 508.018 2429.38 508.385 2430.58 508.385C2432.0099999999998 508.385 2432.7799999999997 507.515 2432.7799999999997 506.324V501.471H2436.3199999999997V506.301C2436.3199999999997 508.178 2435.16 509.712 2431.24 509.712C2428.8599999999997 509.712 2427 509.186 2427 509.186V517.954H2433.06C2435.32 517.954 2437.18 516.0999999999999 2437.18 513.7869999999999V492.99999999999994H2431.1499999999996C2428.8799999999997 492.99999999999994 2427.0199999999995 494.8539999999999 2427.0199999999995 497.1669999999999ZM2442.56 493H2448.61V513.833C2448.61 516.145 2446.75 518 2444.4900000000002 518H2438.4300000000003V508.385C2439.4700000000003 509.277 2441.2900000000004 509.84999999999997 2444.2100000000005 509.712C2445.8000000000006 509.644 2447.4600000000005 509.209 2447.4600000000005 509.209V507.446C2446.6200000000003 507.858 2445.6200000000003 508.27000000000004 2444.3300000000004 508.362C2442.1000000000004 508.545 2440.7700000000004 507.446 2440.7700000000004 505.5C2440.7700000000004 503.577 2442.1000000000004 502.478 2444.3300000000004 502.638C2445.6200000000003 502.72999999999996 2446.6200000000003 503.11899999999997 2447.4600000000005 503.554V501.791C2447.4600000000005 501.791 2445.7800000000007 501.356 2444.2100000000005 501.287C2441.2900000000004 501.15 2439.4700000000007 501.722 2438.4300000000003 502.61499999999995V497.167C2438.4300000000003 494.854 2440.2900000000004 493 2442.5600000000004 493Z " fill="#ffffff" fill-opacity="1" transform="matrix(1,0,0,1,-2427,-493)"></path></svg>