<svg xmlns="http://www.w3.org/2000/svg" xmlns:xlink="http://www.w3.org/1999/xlink" height="20" viewBox="0 0 38 20" width="38"><svg height="20" viewBox="0 0 20 20" width="20"><title/><path d="M18 0H2C.9 0 0 .9 0 2v18l4-4h14c1.1 0 2-.9 2-2V2c0-1.1-.9-2-2-2zM4 7h12v2H4V7zm8 5H4v-2h8v2zm4-6H4V4h12v2z" fill="#000" fill-rule="evenodd"/></svg><svg height="18" viewBox="0 0 18 18" width="18" x="20"><title/><path d="M3.6 7.8c1.4 2.8 3.8 5.1 6.6 6.6l2.2-2.2c.3-.3.7-.4 1-.2 1.1.4 2.3.6 3.6.6.6 0 1 .4 1 1V17c0 .6-.4 1-1 1C7.6 18 0 10.4 0 1c0-.6.4-1 1-1h3.5c.6 0 1 .4 1 1 0 1.2.2 2.4.6 3.6.1.3 0 .7-.2 1L3.6 7.8z" fill="#000" fill-rule="evenodd"/></svg></svg>