<svg xmlns="http://www.w3.org/2000/svg" xmlns:xlink="http://www.w3.org/1999/xlink" height="49" viewBox="0 0 68 49" width="68"><svg height="25" viewBox="0 0 33 25" width="33"><path fill="#fff" d="M24.86 15.18h2.38l.29-.02c.46-.1.84-.5.84-1.08 0-.55-.38-.96-.84-1.08-.06-.02-.2-.02-.29-.02h-2.38zM26.97 0a4.15 4.15 0 0 0-4.13 4.17v4.32h5.83c.13 0 .29 0 .41.03 1.31.06 2.29.75 2.29 1.94 0 .94-.66 1.74-1.89 1.9v.05c1.34.09 2.36.84 2.36 2.01 0 1.26-1.13 2.09-2.63 2.09h-6.39v8.47h6.05A4.15 4.15 0 0 0 33 20.8V0zm1.11 10.74a.97.97 0 0 0-.84-.99l-.23-.02h-2.15v2.01h2.15c.07 0 .21 0 .23-.02a.98.98 0 0 0 .84-.98zM.02 4.17v10.28c1.16.57 2.36.93 3.56.93 1.43 0 2.2-.87 2.2-2.06V8.47h3.54v4.83c0 1.88-1.16 3.41-5.08 3.41-2.38 0-4.24-.52-4.24-.52v8.76h6.06a4.15 4.15 0 0 0 4.12-4.16V0H4.15A4.15 4.15 0 0 0 .02 4.17zM15.56 0h6.05v20.83A4.15 4.15 0 0 1 17.49 25h-6.06v-9.62c1.04.9 2.86 1.47 5.78 1.33 1.59-.07 3.25-.5 3.25-.5v-1.76c-.84.4-1.84.82-3.13.91-2.23.19-3.56-.91-3.56-2.86 0-1.92 1.33-3.02 3.56-2.86 1.29.09 2.29.48 3.13.91V8.8s-1.68-.43-3.25-.5c-2.92-.14-4.74.43-5.78 1.32V4.17A4.15 4.15 0 0 1 15.56 0z"/></svg><svg height="24" viewBox="0 0 24 24" width="24" x="33"><path fill="#fff" d="M24 14H14v10h-4V14H0v-4h10V0h4v10h10z"/></svg><svg height="4" viewBox="0 0 24 4" width="24" y="25"><path fill="#fff" d="M0 4V0h24v4z"/></svg><svg height="20" viewBox="0 0 13 20" width="13" y="29"><path fill="#fff" d="M12.98 2.81L5.67 10l7.31 7.19-2.82 2.8-7.32-7.2L.01 10l2.83-2.8L10.16.01z"/></svg><svg height="18" viewBox="0 0 7 18" width="7" x="13" y="29"><path fill="#fff" d="M6.49 4.7c-.34-.31-.81-.46-1.42-.46h-3.1a2.3 2.3 0 0 0-1.42.41c-.37.27-.55.7-.55 1.28v4.65c0 .25.1.43.3.54.2.1.4.1.59 0 .19-.11.28-.3.28-.54V6.34h.38v10.8c0 .57.26.86.78.86.51 0 .77-.29.77-.86V11.8h.8v5.33c0 .57.26.86.77.86.52 0 .78-.29.78-.86V6.34h.38v3.95c0 .3.09.52.28.66.19.14.39.14.59 0 .2-.14.3-.35.3-.66V5.97c0-.55-.17-.98-.51-1.28zM2.33 2.97a1.75 1.75 0 0 1-.48-1.23c0-.48.16-.9.48-1.24A1.5 1.5 0 0 1 4.6.5c.31.35.47.75.47 1.22 0 .5-.16.91-.47 1.25a1.5 1.5 0 0 1-2.27 0z"/></svg><svg height="14" viewBox="0 0 14 14" width="14" x="20" y="29"><path fill="none" stroke="#fff" stroke-linecap="round" stroke-linejoin="round" stroke-miterlimit="50" stroke-width="2" d="M7.16 12.6c3.15 0 5.7-2.5 5.7-5.58a5.64 5.64 0 0 0-5.7-5.57c-3.15 0-5.7 2.5-5.7 5.57a5.64 5.64 0 0 0 5.7 5.58z"/></svg><svg height="14" viewBox="0 0 13 14" width="13" x="34" y="29"><path fill="#fff" d="M10.2 9.6A6.8 6.8 0 0 1 4 0a6.8 6.8 0 1 0 9 9c-.86.38-1.8.6-2.8.6z"/></svg><svg height="11" viewBox="0 0 11 11" width="11" x="57"><path fill="#fdb913" d="M5.5 0l1.81 3.46L11 4.2 8.43 7.08 8.9 11 5.5 9.32 2.1 11l.47-3.92L0 4.2l3.69-.74L5.5 0"/></svg></svg>